#N canvas 0 50 481 317 12;
#X obj 0 0 cnv 15 480 300 empty empty empty 20 12 0 14 -204800 -66577
0;
#X text 37 34 Korg NTS-1 Control Panel;
#X text 35 66 Created by David Kettle;
#X text 37 233 Repository :;
#X text 37 174 Dependencies :;
#X text 37 206 2 ggee v0.28 or later;
#X text 37 191 1 Pd v0.51.3 or later;
#X text 36 122 Based on Korg NTS-1 MIDI Implementation Chart:;
#X text 36 137 https://www.korg.com/us/support/download/product/0/832/
;
