#N canvas 23 123 820 573 12;
#X obj 479 54 loadbang;
#X obj 479 90 bng 15 250 50 0 empty empty empty 17 7 0 10 -262144 -1
-1;
#X obj 479 116 s \$0-loadbang;
#X obj 10 10 cnv 15 400 180 empty empty empty 20 12 0 14 -204800 -66577
0;
#X obj 34 45 vradio 20 1 0 6 parm-14-s parm-14-r DELAY_TYPE 0 -12 0
16 -257985 -1 -1 0;
#X text 56 45 Off;
#X obj 34 516 pack f f;
#X obj 34 437 i 0;
#X obj 87 465 bng 15 250 50 0 empty \$0-loadbang empty 17 7 0 10 -262144
-1 -1;
#X floatatom 34 222 5 0 0 0 - parm-14-s -;
#X obj 158 55 hsl 100 20 0 127 0 0 parm-15-s parm-15-r DELAY_TIME -2
-12 0 16 -257985 -1 -1 0 0;
#X obj 281 55 hsl 100 20 0 127 0 0 parm-16-s parm-16-r DELAY_DEPTH
-2 -12 0 16 -257985 -1 -1 0 0;
#X obj 382 300 pack f f;
#X obj 435 245 bng 15 250 50 0 empty \$0-loadbang empty 17 7 0 10 -262144
-1 -1;
#X obj 530 300 pack f f;
#X obj 583 245 bng 15 250 50 0 empty \$0-loadbang empty 17 7 0 10 -262144
-1 -1;
#X obj 87 489 i 89;
#X obj 157 286 print DELAY_TYPE invalid;
#X obj 34 255 select 0 1 2 3 4 5;
#X obj 435 273 i 30;
#X obj 583 273 i 31;
#X obj 158 117 hsl 100 20 0 127 0 0 parm-17-s parm-17-r DELAY_MIX -2
-12 0 16 -257985 -1 -1 0 0;
#X obj 382 437 pack f f;
#X obj 435 382 bng 15 250 50 0 empty \$0-loadbang empty 17 7 0 10 -262144
-1 -1;
#X obj 435 410 i 33;
#X obj 54 412 i 21;
#X obj 75 388 i 42;
#X obj 95 364 i 63;
#X text 56 66 Stereo;
#X text 56 86 Mono;
#X text 56 107 Ping Pong;
#X text 56 127 High Pass;
#X obj 116 340 i 84;
#X text 56 147 Tape;
#X obj 136 316 i 105;
#X floatatom 382 245 5 0 0 0 - parm-15-s -;
#X floatatom 530 245 5 0 0 0 - parm-16-s -;
#X floatatom 382 382 5 0 0 0 - parm-17-s -;
#X obj 34 541 s \$1-ctlout;
#X obj 382 325 s \$1-ctlout;
#X obj 530 325 s \$1-ctlout;
#X obj 382 462 s \$1-ctlout;
#X obj 667 82 s parm-nn-s;
#X obj 667 159 s parm-nn-s;
#X obj 667 239 s parm-nn-s;
#X obj 667 321 s parm-nn-s;
#X obj 667 45 r parm-14-s;
#X obj 667 122 r parm-15-s;
#X obj 667 202 r parm-16-s;
#X obj 667 284 r parm-17-s;
#X connect 0 0 1 0;
#X connect 1 0 2 0;
#X connect 6 0 38 0;
#X connect 7 0 6 0;
#X connect 8 0 16 0;
#X connect 9 0 18 0;
#X connect 12 0 39 0;
#X connect 13 0 19 0;
#X connect 14 0 40 0;
#X connect 15 0 20 0;
#X connect 16 0 6 1;
#X connect 18 0 7 0;
#X connect 18 1 25 0;
#X connect 18 2 26 0;
#X connect 18 3 27 0;
#X connect 18 4 32 0;
#X connect 18 5 34 0;
#X connect 18 6 17 0;
#X connect 19 0 12 1;
#X connect 20 0 14 1;
#X connect 22 0 41 0;
#X connect 23 0 24 0;
#X connect 24 0 22 1;
#X connect 25 0 6 0;
#X connect 26 0 6 0;
#X connect 27 0 6 0;
#X connect 32 0 6 0;
#X connect 34 0 6 0;
#X connect 35 0 12 0;
#X connect 36 0 14 0;
#X connect 37 0 22 0;
#X connect 46 0 42 0;
#X connect 47 0 43 0;
#X connect 48 0 44 0;
#X connect 49 0 45 0;
#X coords 0 -1 1 1 400 180 1 10 10;
