#N canvas 374 161 755 534 12;
#X obj 487 48 loadbang;
#X obj 487 84 bng 15 250 50 0 empty empty empty 17 7 0 10 -262144 -1
-1;
#X obj 487 110 s \$0-loadbang;
#X obj 10 10 cnv 15 420 160 empty empty empty 20 12 0 14 -204800 -66577
0;
#X obj 36 43 vradio 20 1 0 5 parm-18-s parm-18-r EG_TYPE 0 -12 0 16
-257985 -1 -1 0;
#X obj 36 467 pack f f;
#X obj 36 388 i 0;
#X obj 57 363 i 25;
#X obj 79 339 i 50;
#X obj 101 315 i 75;
#X obj 89 416 bng 15 250 50 0 empty \$0-loadbang empty 17 7 0 10 -262144
-1 -1;
#X obj 36 231 select 0 1 2 3 4;
#X floatatom 36 195 5 0 0 0 - parm-18-s -;
#X obj 123 291 i 101;
#X obj 143 51 hsl 100 20 0 127 0 0 parm-19-s parm-19-r ATTACK -2 -12
0 16 -257985 -1 -1 5500 0;
#X obj 282 51 hsl 100 20 0 127 0 0 parm-20-s parm-20-r RELEASE -2 -12
0 16 -257985 -1 -1 0 0;
#X obj 328 283 pack f f;
#X obj 381 232 bng 15 250 50 0 empty \$0-loadbang empty 17 7 0 10 -262144
-1 -1;
#X obj 440 283 pack f f;
#X obj 493 232 bng 15 250 50 0 empty \$0-loadbang empty 17 7 0 10 -262144
-1 -1;
#X obj 89 440 i 14;
#X obj 381 256 i 16;
#X obj 493 256 i 19;
#X text 58 43 ADSR;
#X text 58 64 AHR;
#X text 58 84 AR;
#X text 58 105 AR Loop;
#X text 58 125 Open;
#X obj 145 262 print EG_TYPE invalid;
#X obj 143 107 hsl 100 20 0 127 0 0 parm-21-s parm-21-r TREMOLO_RATE
-2 -12 0 16 -257985 -1 -1 0 0;
#X obj 282 107 hsl 100 20 0 127 0 0 parm-22-s parm-22-r TREMOLO_DEPTH
-2 -12 0 16 -257985 -1 -1 3500 0;
#X obj 329 404 pack f f;
#X obj 382 353 bng 15 250 50 0 empty \$0-loadbang empty 17 7 0 10 -262144
-1 -1;
#X obj 445 404 pack f f;
#X obj 498 353 bng 15 250 50 0 empty \$0-loadbang empty 17 7 0 10 -262144
-1 -1;
#X obj 382 377 i 21;
#X obj 498 377 i 20;
#X floatatom 328 232 5 0 0 0 - parm-19-s -;
#X floatatom 440 232 5 0 0 0 - parm-20-s -;
#X floatatom 329 353 5 0 0 0 - parm-21-s -;
#X floatatom 445 353 5 0 0 0 - parm-22-s -;
#X obj 36 492 s \$1-ctlout;
#X obj 328 308 s \$1-ctlout;
#X obj 440 308 s \$1-ctlout;
#X obj 329 429 s \$1-ctlout;
#X obj 445 429 s \$1-ctlout;
#X obj 627 77 s parm-nn-s;
#X obj 627 154 s parm-nn-s;
#X obj 627 234 s parm-nn-s;
#X obj 627 316 s parm-nn-s;
#X obj 627 396 s parm-nn-s;
#X obj 627 40 r parm-18-s;
#X obj 627 117 r parm-19-s;
#X obj 627 197 r parm-20-s;
#X obj 627 279 r parm-21-s;
#X obj 627 359 r parm-22-s;
#X connect 0 0 1 0;
#X connect 1 0 2 0;
#X connect 5 0 41 0;
#X connect 6 0 5 0;
#X connect 7 0 5 0;
#X connect 8 0 5 0;
#X connect 9 0 5 0;
#X connect 10 0 20 0;
#X connect 11 0 6 0;
#X connect 11 1 7 0;
#X connect 11 2 8 0;
#X connect 11 3 9 0;
#X connect 11 4 13 0;
#X connect 11 5 28 0;
#X connect 12 0 11 0;
#X connect 13 0 5 0;
#X connect 16 0 42 0;
#X connect 17 0 21 0;
#X connect 18 0 43 0;
#X connect 19 0 22 0;
#X connect 20 0 5 1;
#X connect 21 0 16 1;
#X connect 22 0 18 1;
#X connect 31 0 44 0;
#X connect 32 0 35 0;
#X connect 33 0 45 0;
#X connect 34 0 36 0;
#X connect 35 0 31 1;
#X connect 36 0 33 1;
#X connect 37 0 16 0;
#X connect 38 0 18 0;
#X connect 39 0 31 0;
#X connect 40 0 33 0;
#X connect 51 0 46 0;
#X connect 52 0 47 0;
#X connect 53 0 48 0;
#X connect 54 0 49 0;
#X connect 55 0 50 0;
#X coords 0 -1 1 1 420 160 1 10 10;
