#N canvas 284 161 851 641 12;
#X obj 449 74 loadbang;
#X obj 449 110 bng 15 250 50 0 empty empty empty 17 7 0 10 -262144
-1 -1;
#X obj 449 136 s \$0-loadbang;
#X obj 10 10 cnv 15 400 200 empty empty empty 20 12 0 14 -204800 -66577
0;
#X obj 34 47 vradio 20 1 0 7 parm-09-s parm-09-r FILTER_TYPE 0 -12
0 16 -257985 -1 -1 0;
#X obj 34 574 pack f f;
#X obj 34 492 i 0;
#X obj 87 523 bng 15 250 50 0 empty \$0-loadbang empty 17 7 0 10 -262144
-1 -1;
#X floatatom 34 247 5 0 0 0 - parm-09-s -;
#X obj 160 70 hsl 100 20 0 127 0 0 parm-10-s parm-10-r CUTOFF -2 -12
0 16 -257985 -1 -1 0 0;
#X obj 285 70 hsl 100 20 0 127 0 0 parm-11-s parm-11-r RESONANCE -2
-12 0 16 -257985 -1 -1 0 0;
#X obj 410 329 pack f f;
#X obj 463 278 bng 15 250 50 0 empty \$0-loadbang empty 17 7 0 10 -262144
-1 -1;
#X obj 558 329 pack f f;
#X obj 611 278 bng 15 250 50 0 empty \$0-loadbang empty 17 7 0 10 -262144
-1 -1;
#X obj 87 547 i 42;
#X obj 463 302 i 43;
#X obj 611 302 i 44;
#X obj 171 311 print FILTER_TYPE invalid;
#X obj 34 280 select 0 1 2 3 4 5 6;
#X text 56 47 LP 2-pole;
#X text 56 68 LP 4-pole;
#X text 56 88 BP 2-pole;
#X text 56 109 BP 4-pole;
#X text 56 129 HP 2-pole;
#X text 56 149 HP 4-pole;
#X text 57 168 Off;
#X obj 53 467 i 18;
#X obj 73 443 i 36;
#X obj 92 419 i 54;
#X obj 112 395 i 72;
#X obj 131 371 i 90;
#X obj 151 346 i 108;
#X obj 160 136 hsl 100 20 0 127 0 0 parm-12-s parm-12-r SWEEP_DEPTH
-2 -12 0 16 -257985 -1 -1 0 0;
#X obj 285 136 hsl 100 20 0 127 0 0 parm-13-s parm-13-r SWEEP_RATE
-2 -12 0 16 -257985 -1 -1 0 0;
#X obj 411 472 pack f f;
#X obj 464 421 bng 15 250 50 0 empty \$0-loadbang empty 17 7 0 10 -262144
-1 -1;
#X obj 559 472 pack f f;
#X obj 612 421 bng 15 250 50 0 empty \$0-loadbang empty 17 7 0 10 -262144
-1 -1;
#X obj 464 445 i 45;
#X obj 612 445 i 46;
#X floatatom 410 273 5 0 0 0 - parm-10-s -;
#X floatatom 558 273 5 0 0 0 - parm-11-s -;
#X floatatom 411 416 5 0 0 0 - parm-12-s -;
#X floatatom 559 416 5 0 0 0 - parm-13-s -;
#X obj 34 599 s \$1-ctlout;
#X obj 410 355 s \$1-ctlout;
#X obj 558 355 s \$1-ctlout;
#X obj 411 498 s \$1-ctlout;
#X obj 559 498 s \$1-ctlout;
#X obj 695 95 s parm-nn-s;
#X obj 695 179 s parm-nn-s;
#X obj 695 263 s parm-nn-s;
#X obj 695 347 s parm-nn-s;
#X obj 695 431 s parm-nn-s;
#X obj 695 53 r parm-09-s;
#X obj 695 137 r parm-10-s;
#X obj 695 221 r parm-11-s;
#X obj 695 305 r parm-12-s;
#X obj 695 389 r parm-13-s;
#X connect 0 0 1 0;
#X connect 1 0 2 0;
#X connect 5 0 45 0;
#X connect 6 0 5 0;
#X connect 7 0 15 0;
#X connect 8 0 19 0;
#X connect 11 0 46 0;
#X connect 12 0 16 0;
#X connect 13 0 47 0;
#X connect 14 0 17 0;
#X connect 15 0 5 1;
#X connect 16 0 11 1;
#X connect 17 0 13 1;
#X connect 19 0 6 0;
#X connect 19 1 27 0;
#X connect 19 2 28 0;
#X connect 19 3 29 0;
#X connect 19 4 30 0;
#X connect 19 5 31 0;
#X connect 19 6 32 0;
#X connect 19 7 18 0;
#X connect 27 0 5 0;
#X connect 28 0 5 0;
#X connect 29 0 5 0;
#X connect 30 0 5 0;
#X connect 31 0 5 0;
#X connect 32 0 5 0;
#X connect 35 0 48 0;
#X connect 36 0 39 0;
#X connect 37 0 49 0;
#X connect 38 0 40 0;
#X connect 39 0 35 1;
#X connect 40 0 37 1;
#X connect 41 0 11 0;
#X connect 42 0 13 0;
#X connect 43 0 35 0;
#X connect 44 0 37 0;
#X connect 55 0 50 0;
#X connect 56 0 51 0;
#X connect 57 0 52 0;
#X connect 58 0 53 0;
#X connect 59 0 54 0;
#X coords 0 -1 1 1 400 200 1 10 10;
