#N canvas 243 140 1016 613 12;
#X obj 0 0 cnv 15 1000 600 empty empty empty 20 12 0 14 -204800 -66577
0;
#X obj 8 25 mod-type \$0;
#X obj 410 25 osc-type \$0;
#X obj 1 187 filter-type \$0;
#X obj 1 389 eg-type \$0;
#X obj 409 187 delay-type \$0;
#X obj 410 389 reverb-type \$0;
#X obj 853 62 MIDI-setup;
#N canvas 163 171 391 382 load-patch 0;
#X obj 164 57 bng 15 250 50 0 empty empty empty 17 7 0 10 -262144 -1
-1;
#X obj 164 140 openpanel;
#X msg 164 173 read \$1;
#X obj 164 319 qlist;
#X obj 91 245 pipe 500;
#X msg 91 271 bang;
#X obj 91 221 bng 15 250 50 0 empty empty empty 17 7 0 10 -262144 -1
-1;
#X obj 0 0 cnv 30 30 30 empty empty empty 20 12 0 14 -4034 -66577 0
;
#X obj 0 0 bng 30 250 50 0 \$0-load-patch-s \$0-load-patch-r empty
17 7 0 10 -4034 -1 -1;
#X obj 164 26 r \$0-load-patch-s;
#X obj 164 85 ggee/getdir;
#X obj 164 112 makefilename %s/data;
#X connect 0 0 10 0;
#X connect 1 0 2 0;
#X connect 2 0 3 0;
#X connect 2 0 6 0;
#X connect 4 0 5 0;
#X connect 5 0 3 0;
#X connect 6 0 4 0;
#X connect 9 0 0 0;
#X connect 10 0 11 0;
#X connect 11 0 1 0;
#X coords 0 -1 1 1 30 30 2 0 0;
#X restore 835 113 pd load-patch;
#X text 872 119 Load Patch;
#N canvas 625 193 449 422 save-patch 0;
#X obj 70 56 bng 15 250 50 0 empty empty empty 17 7 0 10 -262144 -1
-1;
#X obj 70 81 t b b b;
#X msg 116 110 clear;
#X obj 70 236 savepanel;
#X msg 70 260 write \$1;
#X obj 70 302 qlist;
#X obj 232 53 until;
#X obj 232 86 upto 26;
#X obj 232 24 bng 15 250 50 0 empty empty empty 17 7 0 10 -262144 -1
-1;
#X obj 232 119 + 1;
#X msg 232 212 \; \$1 bang;
#X obj 230 294 pack f s;
#X obj 232 183 t s s;
#X msg 230 325 add \$2 \$1;
#X obj 0 0 cnv 30 30 30 empty empty empty 20 12 0 14 -4034 -66577 0
;
#X obj 0 0 bng 30 250 50 0 \$0-save-patch-s \$0-save-patch-r empty
17 7 0 10 -4034 -1 -1;
#X obj 232 147 makefilename parm-%02d-r;
#X obj 230 263 r parm-nn-s;
#X obj 70 22 r \$0-save-patch-s;
#X obj 70 167 ggee/getdir;
#X obj 70 194 makefilename %s/data;
#X connect 0 0 1 0;
#X connect 1 0 19 0;
#X connect 1 1 8 0;
#X connect 1 2 2 0;
#X connect 2 0 5 0;
#X connect 3 0 4 0;
#X connect 4 0 5 0;
#X connect 6 0 7 0;
#X connect 7 0 9 0;
#X connect 7 1 6 1;
#X connect 8 0 6 0;
#X connect 9 0 16 0;
#X connect 11 0 13 0;
#X connect 12 0 10 0;
#X connect 12 1 11 1;
#X connect 13 0 5 0;
#X connect 16 0 12 0;
#X connect 17 0 11 0;
#X connect 18 0 0 0;
#X connect 19 0 20 0;
#X connect 20 0 3 0;
#X coords 0 -1 1 1 30 30 2 0 0;
#X restore 835 151 pd save-patch;
#X text 872 156 Save Patch;
#N canvas 449 307 296 410 reset-patch 0;
#X obj 0 0 cnv 30 30 30 empty empty empty 20 12 0 14 -4034 -66577 0
;
#X obj 0 0 bng 30 250 50 0 \$0-reset-patch-s \$0-reset-patch-r empty
17 7 0 10 -4034 -1 -1;
#X obj 67 77 until;
#X obj 67 110 upto 26;
#X obj 67 143 + 1;
#X obj 67 171 makefilename parm-%02d-r;
#X obj 67 48 bng 15 250 50 0 empty empty empty 17 7 0 10 -262144 -1
-1;
#X obj 67 208 t s b;
#X obj 99 239 int 0;
#X obj 67 277 pack s f;
#X msg 67 321 \; \$1 \$2;
#X obj 67 18 r \$0-reset-patch-s;
#X connect 2 0 3 0;
#X connect 3 0 4 0;
#X connect 3 1 2 1;
#X connect 4 0 5 0;
#X connect 5 0 7 0;
#X connect 6 0 2 0;
#X connect 7 0 9 0;
#X connect 7 1 8 0;
#X connect 8 0 9 1;
#X connect 9 0 10 0;
#X connect 11 0 6 0;
#X coords 0 -1 1 1 30 30 2 0 0;
#X restore 835 189 pd reset-patch;
#X text 872 193 Reset Patch;
#X obj 853 33 About;
