#N canvas 140 93 1210 494 12;
#X obj 0 0 cnv 15 1200 480 empty empty empty 20 12 0 14 -204800 -66577
0;
#X obj 17 22 loadbang;
#X obj 17 54 bng 15 250 50 0 empty empty empty 17 7 0 10 -258113 -1
-1;
#X obj 17 80 s \$0-loadbang;
#X obj 144 63 unpack f f;
#X floatatom 270 91 3 1 16 1 CHAN - -;
#X floatatom 211 91 3 0 127 1 CC - -;
#X floatatom 144 91 3 0 127 1 VALUE - -;
#X obj 144 144 ctlout;
#X obj 270 58 i 1;
#X obj 270 22 bng 15 250 50 0 empty \$0-loadbang empty 17 7 0 10 -258113
-1 -1;
#X obj 144 22 r \$1-ctlout;
#X obj 342 22 notein;
#X obj 342 144 noteout;
#X floatatom 361 49 3 0 0 1 Vel - -;
#X floatatom 342 73 3 0 0 1 Note - -;
#X obj 704 22 ctlin;
#X floatatom 736 52 2 0 0 1 CHAN - -;
#X floatatom 720 77 4 0 0 1 CC - -;
#X floatatom 704 102 4 0 0 1 VALUE - -;
#X text 753 21 <== Move knob/slider on MIDI controller to detect CC
;
#X obj 428 49 tgl 15 0 empty \$0-loadbang empty 17 7 0 10 -4034 -1
-1 1 1;
#X obj 342 102 spigot;
#X text 445 47 <== Turn on to allow pass-thru;
#N canvas 82 231 344 406 load-config 1;
#X obj 0 0 bng 30 250 50 0 \$0-load-config-s \$0-load-config-r empty
20 7 0 10 -4034 -1 -1;
#X obj 143 57 bng 15 250 50 0 empty empty empty 17 7 0 10 -262144 -1
-1;
#X obj 143 136 openpanel;
#X msg 143 169 read \$1;
#X obj 143 315 qlist;
#X obj 70 241 pipe 500;
#X msg 70 267 bang;
#X obj 70 217 bng 15 250 50 0 empty empty empty 17 7 0 10 -262144 -1
-1;
#X obj 143 26 r \$0-load-config-s;
#X obj 143 80 ggee/getdir;
#X obj 143 107 makefilename %s/config;
#X connect 1 0 9 0;
#X connect 2 0 3 0;
#X connect 3 0 4 0;
#X connect 3 0 7 0;
#X connect 5 0 6 0;
#X connect 6 0 4 0;
#X connect 7 0 5 0;
#X connect 8 0 1 0;
#X connect 9 0 10 0;
#X connect 10 0 2 0;
#X coords 0 -1 1 1 30 30 2 0 0;
#X restore 840 269 pd load-config;
#N canvas 630 205 448 398 save-config 0;
#X obj 0 0 bng 30 250 50 0 \$0-save-config-s \$0-save-config-r empty
20 7 0 10 -4034 -1 -1;
#X obj 70 56 bng 15 250 50 0 empty empty empty 17 7 0 10 -262144 -1
-1;
#X obj 70 81 t b b b;
#X msg 116 110 clear;
#X obj 70 236 savepanel;
#X msg 70 260 write \$1;
#X obj 70 302 qlist;
#X obj 252 53 until;
#X obj 252 86 upto 26;
#X obj 252 24 bng 15 250 50 0 empty empty empty 17 7 0 10 -262144 -1
-1;
#X obj 252 119 + 1;
#X obj 252 147 makefilename cc-%02d-r;
#X msg 252 212 \; \$1 bang;
#X obj 250 294 pack f s;
#X obj 252 183 t s s;
#X obj 250 263 r cc-nn-s;
#X msg 250 325 add \$2 \$1;
#X obj 70 22 r \$0-save-config-s;
#X obj 70 171 ggee/getdir;
#X obj 70 198 makefilename %s/config;
#X connect 1 0 2 0;
#X connect 2 0 18 0;
#X connect 2 1 9 0;
#X connect 2 2 3 0;
#X connect 3 0 6 0;
#X connect 4 0 5 0;
#X connect 5 0 6 0;
#X connect 7 0 8 0;
#X connect 8 0 10 0;
#X connect 8 1 7 1;
#X connect 9 0 7 0;
#X connect 10 0 11 0;
#X connect 11 0 14 0;
#X connect 13 0 16 0;
#X connect 14 0 12 0;
#X connect 14 1 13 1;
#X connect 15 0 13 0;
#X connect 16 0 6 0;
#X connect 17 0 1 0;
#X connect 18 0 19 0;
#X connect 19 0 4 0;
#X coords 0 -1 1 1 30 30 2 0 0;
#X restore 840 309 pd save-config;
#X obj 12 225 remap-mod-type;
#X obj 12 274 remap-mod-time;
#X obj 12 323 remap-mod-depth;
#X obj 144 274 remap-osc-shape;
#X obj 144 323 remap-osc-alt;
#X obj 144 372 remap-lfo-rate;
#X obj 144 421 remap-lfo-depth;
#X obj 277 274 remap-cutoff;
#X obj 277 323 remap-resonance;
#X obj 277 372 remap-sweep-depth;
#X obj 277 421 remap-sweep-rate;
#X obj 412 274 remap-delay-time;
#X obj 412 323 remap-delay-depth;
#X obj 412 372 remap-delay-mix;
#X obj 552 274 remap-attack;
#X obj 552 323 remap-release;
#X obj 552 372 remap-tremolo-rate;
#X obj 552 421 remap-tremolo-depth;
#X obj 676 274 remap-reverb-time;
#X obj 676 323 remap-reverb-depth;
#X obj 676 372 remap-reverb-mix;
#X obj 144 225 remap-osc-type;
#X obj 276 225 remap-filter-type;
#X obj 413 225 remap-delay-type;
#X obj 553 225 remap-eg-type;
#X obj 677 225 remap-reverb-type;
#X text 21 195 Enter incoming CC values sent by your controller below:
;
#X text 878 274 Load Config;
#X text 878 315 Save Config;
#N canvas 886 80 297 417 reset-config 0;
#X obj 0 0 cnv 30 30 30 empty empty empty 20 12 0 14 -4034 -66577 0
;
#X obj 0 0 bng 30 250 50 0 \$0-reset-config-s \$0-reset-config-r empty
17 7 0 10 -4034 -1 -1;
#X obj 67 77 until;
#X obj 67 110 upto 26;
#X obj 67 143 + 1;
#X obj 67 48 bng 15 250 50 0 empty empty empty 17 7 0 10 -262144 -1
-1;
#X obj 67 208 t s b;
#X obj 99 239 int 0;
#X obj 67 277 pack s f;
#X msg 67 321 \; \$1 \$2;
#X obj 67 18 r \$0-reset-config-s;
#X obj 67 171 makefilename cc-%02d-r;
#X connect 2 0 3 0;
#X connect 3 0 4 0;
#X connect 3 1 2 1;
#X connect 4 0 11 0;
#X connect 5 0 2 0;
#X connect 6 0 8 0;
#X connect 6 1 7 0;
#X connect 7 0 8 1;
#X connect 8 0 9 0;
#X connect 10 0 5 0;
#X connect 11 0 6 0;
#X coords 0 -1 1 1 30 30 2 0 0;
#X restore 840 349 pd reset-config;
#X text 878 355 Reset Config;
#X connect 1 0 2 0;
#X connect 2 0 3 0;
#X connect 4 0 7 0;
#X connect 4 1 6 0;
#X connect 5 0 8 2;
#X connect 5 0 13 2;
#X connect 6 0 8 1;
#X connect 7 0 8 0;
#X connect 9 0 5 0;
#X connect 10 0 9 0;
#X connect 11 0 4 0;
#X connect 12 0 15 0;
#X connect 12 1 14 0;
#X connect 14 0 13 1;
#X connect 15 0 22 0;
#X connect 16 0 19 0;
#X connect 16 1 18 0;
#X connect 16 2 17 0;
#X connect 21 0 22 1;
#X connect 22 0 13 0;
