#N canvas 68 107 658 545 12;
#X obj 333 24 loadbang;
#X obj 333 50 bng 15 250 50 0 empty empty empty 17 7 0 10 -262144 -1
-1;
#X obj 333 71 s \$0-loadbang;
#X obj 10 10 cnv 15 250 160 empty empty empty 20 12 0 14 -204800 -66577
0;
#X obj 27 42 vradio 20 1 0 5 parm-01-s parm-01-r MOD_TYPE 0 -12 0 16
-257985 -1 -1 3;
#X text 49 42 Off;
#X text 49 63 Chorus;
#X text 49 83 Ensemble;
#X text 49 104 Phaser;
#X text 49 124 Flanger;
#X obj 34 461 pack f f;
#X obj 87 434 i 88;
#X obj 34 382 i 0;
#X obj 55 357 i 25;
#X obj 77 333 i 50;
#X obj 99 309 i 75;
#X obj 87 410 bng 15 250 50 0 empty \$0-loadbang empty 17 7 0 10 -262144
-1 -1;
#X obj 34 225 select 0 1 2 3 4;
#X floatatom 34 192 5 0 0 0 - parm-01-s -;
#X obj 143 256 print MOD_TYPE invalid;
#X obj 121 285 i 101;
#X obj 139 43 hsl 100 20 0 127 0 0 parm-02-s parm-02-r MOD_TIME -2
-12 0 16 -257985 -1 -1 0 0;
#X obj 139 105 hsl 100 20 0 127 0 0 parm-03-s parm-03-r MOD_DEPTH -2
-12 0 16 -257985 -1 -1 3400 0;
#X obj 354 260 pack f f;
#X obj 407 209 bng 15 250 50 0 empty \$0-loadbang empty 17 7 0 10 -262144
-1 -1;
#X obj 355 400 pack f f;
#X obj 408 349 bng 15 250 50 0 empty \$0-loadbang empty 17 7 0 10 -262144
-1 -1;
#X obj 407 233 i 28;
#X obj 408 373 i 29;
#X floatatom 354 207 5 0 0 0 - parm-02-s -;
#X floatatom 355 347 5 0 0 0 - parm-03-s -;
#X obj 34 486 s \$1-ctlout;
#X obj 354 285 s \$1-ctlout;
#X obj 355 425 s \$1-ctlout;
#X obj 492 24 r parm-01-s;
#X obj 492 71 s parm-nn-s;
#X obj 492 165 s parm-nn-s;
#X obj 492 259 s parm-nn-s;
#X obj 492 118 r parm-02-s;
#X obj 492 212 r parm-03-s;
#X connect 0 0 1 0;
#X connect 1 0 2 0;
#X connect 10 0 31 0;
#X connect 11 0 10 1;
#X connect 12 0 10 0;
#X connect 13 0 10 0;
#X connect 14 0 10 0;
#X connect 15 0 10 0;
#X connect 16 0 11 0;
#X connect 17 0 12 0;
#X connect 17 1 13 0;
#X connect 17 2 14 0;
#X connect 17 3 15 0;
#X connect 17 4 20 0;
#X connect 17 5 19 0;
#X connect 18 0 17 0;
#X connect 20 0 10 0;
#X connect 23 0 32 0;
#X connect 24 0 27 0;
#X connect 25 0 33 0;
#X connect 26 0 28 0;
#X connect 27 0 23 1;
#X connect 28 0 25 1;
#X connect 29 0 23 0;
#X connect 30 0 25 0;
#X connect 34 0 35 0;
#X connect 38 0 36 0;
#X connect 39 0 37 0;
#X coords 0 -1 1 1 250 160 1 10 10;
