#N canvas 102 91 365 397 12;
#X obj 162 30 ctlin;
#X floatatom 194 68 2 0 0 1 CHAN - -;
#X floatatom 178 95 4 0 0 1 CC - -;
#X floatatom 162 128 4 0 0 1 VALUE - -;
#X obj 201 240 ==;
#X obj 162 312 spigot;
#X obj 201 274 tgl 15 0 empty empty empty 17 7 0 10 -262144 -1 -1 0
1;
#X floatatom 219 208 5 0 0 0 - - -;
#X obj 0 0 cnv 15 100 50 empty empty empty 20 12 0 14 -204800 -66577
0;
#X obj 7 7 nbx 3 19 0 127 0 1 cc-nn-s cc-02-r Mod_Time 0 30 0 14 -257985
-1 -1 8 256;
#X obj 219 179 r cc-02-r;
#X obj 162 341 s parm-02-r;
#X connect 0 0 3 0;
#X connect 0 1 2 0;
#X connect 0 2 1 0;
#X connect 2 0 4 0;
#X connect 3 0 5 0;
#X connect 4 0 6 0;
#X connect 5 0 11 0;
#X connect 6 0 5 1;
#X connect 7 0 4 1;
#X connect 10 0 7 0;
#X coords 0 -1 1 1 100 50 2 0 0;
