#N canvas 705 44 704 435 12;
#X obj 159 30 ctlin;
#X floatatom 191 68 2 0 0 1 CHAN - -;
#X floatatom 175 95 4 0 0 1 CC - -;
#X floatatom 159 128 4 0 0 1 VALUE - -;
#X obj 198 280 ==;
#X obj 159 352 spigot;
#X obj 198 314 tgl 15 0 empty empty empty 17 7 0 10 -262144 -1 -1 0
1;
#X obj 404 72 moses 25;
#X obj 457 98 moses 50;
#X obj 510 124 moses 75;
#X obj 404 124 int 0;
#X obj 404 104 bng 15 250 50 0 empty empty empty 17 7 0 10 -262144
-1 -1;
#X obj 457 128 bng 15 250 50 0 empty empty empty 17 7 0 10 -262144
-1 -1;
#X obj 510 151 bng 15 250 50 0 empty empty empty 17 7 0 10 -262144
-1 -1;
#X obj 563 177 bng 15 250 50 0 empty empty empty 17 7 0 10 -262144
-1 -1;
#X obj 623 177 bng 15 250 50 0 empty empty empty 17 7 0 10 -262144
-1 -1;
#X obj 457 148 int 1;
#X obj 510 171 int 2;
#X obj 563 197 int 3;
#X obj 623 197 int 4;
#X floatatom 404 316 5 0 0 0 - - -;
#X obj 159 165 s \$0-remap-in;
#X obj 404 41 r \$0-remap-in;
#X obj 404 348 s \$0-remap-out;
#X obj 159 190 r \$0-remap-out;
#X obj 563 150 moses 101;
#X floatatom 216 253 5 0 0 0 - - -;
#X obj 0 0 cnv 15 100 50 empty empty empty 20 12 0 14 -204800 -66577
0;
#X obj 7 7 nbx 3 19 0 127 0 1 cc-nn-s cc-04-r Osc_Type 0 30 0 14 -257985
-1 -1 55 256;
#X obj 216 224 r cc-04-r;
#X obj 159 381 s parm-04-r;
#X connect 0 0 3 0;
#X connect 0 1 2 0;
#X connect 0 2 1 0;
#X connect 2 0 4 0;
#X connect 3 0 21 0;
#X connect 4 0 6 0;
#X connect 5 0 30 0;
#X connect 6 0 5 1;
#X connect 7 0 11 0;
#X connect 7 1 8 0;
#X connect 8 0 12 0;
#X connect 8 1 9 0;
#X connect 9 0 13 0;
#X connect 9 1 25 0;
#X connect 10 0 20 0;
#X connect 11 0 10 0;
#X connect 12 0 16 0;
#X connect 13 0 17 0;
#X connect 14 0 18 0;
#X connect 15 0 19 0;
#X connect 16 0 20 0;
#X connect 17 0 20 0;
#X connect 18 0 20 0;
#X connect 19 0 20 0;
#X connect 20 0 23 0;
#X connect 22 0 7 0;
#X connect 24 0 5 0;
#X connect 25 0 14 0;
#X connect 25 1 15 0;
#X connect 26 0 4 1;
#X connect 29 0 26 0;
#X coords 0 -1 1 1 100 50 2 0 0;
