#N canvas 623 151 399 266 10;
#X obj 19 19 inlet counter;
#X obj 50 156 + 1;
#X obj 94 156 sel 0;
#X obj 19 156 i;
#X obj 19 226 outlet counter;
#X obj 142 226 outlet finished;
#X obj 50 191 mod \$1;
#X obj 92 128 bng 15 250 50 0 empty empty empty 17 7 0 10 -262144 -1
-1;
#X obj 19 54 route reset;
#X msg 92 100 0;
#X connect 0 0 8 0;
#X connect 1 0 6 0;
#X connect 2 0 5 0;
#X connect 3 0 1 0;
#X connect 3 0 4 0;
#X connect 6 0 2 0;
#X connect 6 0 3 1;
#X connect 8 0 9 0;
#X connect 8 1 3 0;
#X connect 9 0 3 0;
#X connect 9 0 7 0;
