#N canvas 346 107 735 573 12;
#X obj 479 54 loadbang;
#X obj 479 90 bng 15 250 50 0 empty empty empty 17 7 0 10 #fcfcfc #000000
#000000;
#X obj 479 116 s \$0-loadbang;
#X obj 10 10 cnv 15 400 180 empty empty empty 20 12 0 14 #c4fcfc #404040
0;
#X obj 34 45 vradio 20 1 0 6 parm-14-s parm-14-r DELAY\\\ TYPE 0 -12
0 16 #f8fc00 #000000 #000000 0;
#X text 56 45 Off;
#X obj 34 516 pack f f;
#X obj 34 437 i 0;
#X obj 87 465 bng 15 250 50 0 empty \$0-loadbang empty 17 7 0 10 #fcfcfc
#000000 #000000;
#X floatatom 34 222 5 0 0 0 - parm-14-s - 0;
#X obj 158 55 hsl 100 20 0 127 0 0 parm-15-s parm-15-r DELAY\\\ TIME
-2 -12 0 16 #f8fc00 #000000 #000000 0 0;
#X obj 281 55 hsl 100 20 0 127 0 0 parm-16-s parm-16-r DELAY\\\ DEPTH
-2 -12 0 16 #f8fc00 #000000 #000000 0 0;
#X obj 368 309 pack f f;
#X obj 421 254 bng 15 250 50 0 empty \$0-loadbang empty 17 7 0 10 #fcfcfc
#000000 #000000;
#X obj 485 309 pack f f;
#X obj 538 254 bng 15 250 50 0 empty \$0-loadbang empty 17 7 0 10 #fcfcfc
#000000 #000000;
#X obj 87 489 i 89;
#X obj 157 286 print DELAY_TYPE invalid;
#X obj 34 255 select 0 1 2 3 4 5;
#X obj 421 282 i 30;
#X obj 538 282 i 31;
#X obj 158 117 hsl 100 20 0 127 0 0 parm-17-s parm-17-r DELAY\\\ MIX
-2 -12 0 16 #f8fc00 #000000 #000000 0 0;
#X obj 368 446 pack f f;
#X obj 421 391 bng 15 250 50 0 empty \$0-loadbang empty 17 7 0 10 #fcfcfc
#000000 #000000;
#X obj 421 419 i 33;
#X obj 54 412 i 21;
#X obj 75 388 i 42;
#X obj 95 364 i 63;
#X text 56 66 Stereo;
#X text 56 86 Mono;
#X text 56 107 Ping Pong;
#X text 56 127 High Pass;
#X obj 116 340 i 84;
#X text 56 147 Tape;
#X obj 136 316 i 105;
#X floatatom 368 254 5 0 0 0 - parm-15-s - 0;
#X floatatom 485 254 5 0 0 0 - parm-16-s - 0;
#X floatatom 368 391 5 0 0 0 - parm-17-s - 0;
#X obj 617 82 s parm-nn-s;
#X obj 617 159 s parm-nn-s;
#X obj 617 239 s parm-nn-s;
#X obj 617 321 s parm-nn-s;
#X obj 617 45 r parm-14-s;
#X obj 617 122 r parm-15-s;
#X obj 617 202 r parm-16-s;
#X obj 617 284 r parm-17-s;
#X obj 34 541 s ctlout;
#X obj 368 334 s ctlout;
#X obj 485 334 s ctlout;
#X obj 368 471 s ctlout;
#X connect 0 0 1 0;
#X connect 1 0 2 0;
#X connect 6 0 46 0;
#X connect 7 0 6 0;
#X connect 8 0 16 0;
#X connect 9 0 18 0;
#X connect 12 0 47 0;
#X connect 13 0 19 0;
#X connect 14 0 48 0;
#X connect 15 0 20 0;
#X connect 16 0 6 1;
#X connect 18 0 7 0;
#X connect 18 1 25 0;
#X connect 18 2 26 0;
#X connect 18 3 27 0;
#X connect 18 4 32 0;
#X connect 18 5 34 0;
#X connect 18 6 17 0;
#X connect 19 0 12 1;
#X connect 20 0 14 1;
#X connect 22 0 49 0;
#X connect 23 0 24 0;
#X connect 24 0 22 1;
#X connect 25 0 6 0;
#X connect 26 0 6 0;
#X connect 27 0 6 0;
#X connect 32 0 6 0;
#X connect 34 0 6 0;
#X connect 35 0 12 0;
#X connect 36 0 14 0;
#X connect 37 0 22 0;
#X connect 42 0 38 0;
#X connect 43 0 39 0;
#X connect 44 0 40 0;
#X connect 45 0 41 0;
#X coords 0 -1 1 1 400 180 1 10 10;
