#N canvas 599 208 658 578 12;
#X obj 333 24 loadbang;
#X obj 333 50 bng 15 250 50 0 empty empty empty 17 7 0 10 #fcfcfc #000000
#000000;
#X obj 333 71 s \$0-loadbang;
#X obj 10 10 cnv 15 250 160 empty empty empty 20 12 0 14 #c4fcfc #404040
0;
#X obj 27 42 vradio 20 1 0 5 parm-01-s parm-01-r MOD\\\ TYPE 0 -12
0 16 #f8fc00 #000000 #000000 0;
#X text 49 42 Off;
#X text 49 63 Chorus;
#X text 49 83 Ensemble;
#X text 49 104 Phaser;
#X text 49 124 Flanger;
#X obj 34 461 pack f f;
#X obj 87 434 i 88;
#X obj 34 382 i 0;
#X obj 55 357 i 25;
#X obj 77 333 i 50;
#X obj 99 309 i 75;
#X obj 87 410 bng 15 250 50 0 empty \$0-loadbang empty 17 7 0 10 #fcfcfc
#000000 #000000;
#X obj 34 225 select 0 1 2 3 4;
#X floatatom 34 192 5 0 0 0 - parm-01-s - 0;
#X obj 143 256 print MOD_TYPE invalid;
#X obj 121 285 i 101;
#X obj 139 43 hsl 100 20 0 127 0 0 parm-02-s parm-02-r MOD\\\ TIME
-2 -12 0 16 #f8fc00 #000000 #000000 0 0;
#X obj 139 105 hsl 100 20 0 127 0 0 parm-03-s parm-03-r MOD\\\ DEPTH
-2 -12 0 16 #f8fc00 #000000 #000000 0 0;
#X obj 328 289 pack f f;
#X obj 381 238 bng 15 250 50 0 empty \$0-loadbang empty 17 7 0 10 #fcfcfc
#000000 #000000;
#X obj 329 429 pack f f;
#X obj 382 378 bng 15 250 50 0 empty \$0-loadbang empty 17 7 0 10 #fcfcfc
#000000 #000000;
#X obj 381 262 i 28;
#X obj 382 402 i 29;
#X floatatom 328 236 5 0 0 0 - parm-02-s - 0;
#X floatatom 329 376 5 0 0 0 - parm-03-s - 0;
#X obj 492 24 r parm-01-s;
#X obj 492 51 s parm-nn-s;
#X obj 492 115 s parm-nn-s;
#X obj 492 179 s parm-nn-s;
#X obj 492 88 r parm-02-s;
#X obj 492 152 r parm-03-s;
#X obj 464 51 bng 15 250 50 0 empty empty empty 17 7 0 10 #fcfcfc #000000
#000000;
#X obj 464 113 bng 15 250 50 0 empty empty empty 17 7 0 10 #fcfcfc
#000000 #000000;
#X obj 464 178 bng 15 250 50 0 empty empty empty 17 7 0 10 #fcfcfc
#000000 #000000;
#X obj 34 486 s ctlout;
#X obj 328 314 s ctlout;
#X obj 329 454 s ctlout;
#X connect 0 0 1 0;
#X connect 1 0 2 0;
#X connect 10 0 40 0;
#X connect 11 0 10 1;
#X connect 12 0 10 0;
#X connect 13 0 10 0;
#X connect 14 0 10 0;
#X connect 15 0 10 0;
#X connect 16 0 11 0;
#X connect 17 0 12 0;
#X connect 17 1 13 0;
#X connect 17 2 14 0;
#X connect 17 3 15 0;
#X connect 17 4 20 0;
#X connect 17 5 19 0;
#X connect 18 0 17 0;
#X connect 20 0 10 0;
#X connect 23 0 41 0;
#X connect 24 0 27 0;
#X connect 25 0 42 0;
#X connect 26 0 28 0;
#X connect 27 0 23 1;
#X connect 28 0 25 1;
#X connect 29 0 23 0;
#X connect 30 0 25 0;
#X connect 31 0 32 0;
#X connect 31 0 37 0;
#X connect 35 0 33 0;
#X connect 35 0 38 0;
#X connect 36 0 34 0;
#X connect 36 0 39 0;
#X coords 0 -1 1 1 250 160 1 10 10;
