#N canvas 360 210 459 288 12;
#X declare -lib iemlib;
#X obj 31 99 splitfilename;
#X obj 246 144 splitfilename .;
#X obj 31 25 inlet;
#X obj 31 226 outlet;
#X obj 246 226 outlet;
#X obj 348 226 outlet;
#X obj 119 226 outlet;
#X symbolatom 31 198 10 0 0 0 - - -;
#X symbolatom 119 198 16 0 0 0 - - -;
#X symbolatom 246 198 10 0 0 0 - - -;
#X symbolatom 348 198 10 0 0 0 - - -;
#X text 82 25 <== Full path and file name;
#X text 38 175 Path;
#X text 126 175 File name;
#X text 254 175 File prefix;
#X text 356 175 File ext.;
#X obj 306 26 declare -lib iemlib;
#X connect 0 0 7 0;
#X connect 0 1 1 0;
#X connect 0 1 8 0;
#X connect 1 0 9 0;
#X connect 1 1 10 0;
#X connect 2 0 0 0;
#X connect 7 0 3 0;
#X connect 8 0 6 0;
#X connect 9 0 4 0;
#X connect 10 0 5 0;
