#N canvas 709 35 726 435 12;
#X obj 161 30 ctlin;
#X floatatom 193 68 2 0 0 1 CHAN - - 0;
#X floatatom 177 95 4 0 0 1 CC - - 0;
#X floatatom 161 128 4 0 0 1 VALUE - - 0;
#X obj 200 280 ==;
#X obj 161 352 spigot;
#X obj 200 314 tgl 15 0 empty empty empty 17 7 0 10 #fcfcfc #000000
#000000 0 1;
#X obj 326 124 int 0;
#X obj 326 104 bng 15 250 50 0 empty empty empty 17 7 0 10 #fcfcfc
#000000 #000000;
#X obj 379 128 bng 15 250 50 0 empty empty empty 17 7 0 10 #fcfcfc
#000000 #000000;
#X obj 431 151 bng 15 250 50 0 empty empty empty 17 7 0 10 #fcfcfc
#000000 #000000;
#X obj 485 177 bng 15 250 50 0 empty empty empty 17 7 0 10 #fcfcfc
#000000 #000000;
#X obj 379 148 int 1;
#X obj 431 171 int 2;
#X obj 485 197 int 3;
#X floatatom 326 348 5 0 0 0 - - - 0;
#X obj 161 165 s \$0-remap-in;
#X obj 326 41 r \$0-remap-in;
#X obj 326 380 s \$0-remap-out;
#X obj 161 190 r \$0-remap-out;
#X obj 538 204 bng 15 250 50 0 empty empty empty 17 7 0 10 #fcfcfc
#000000 #000000;
#X obj 591 230 bng 15 250 50 0 empty empty empty 17 7 0 10 #fcfcfc
#000000 #000000;
#X obj 651 230 bng 15 250 50 0 empty empty empty 17 7 0 10 #fcfcfc
#000000 #000000;
#X obj 538 224 int 4;
#X obj 591 250 int 5;
#X obj 651 250 int 6;
#X obj 326 72 moses 18;
#X obj 379 98 moses 36;
#X obj 432 124 moses 54;
#X obj 485 150 moses 72;
#X obj 538 177 moses 90;
#X obj 591 203 moses 108;
#X floatatom 218 252 5 0 0 0 - - - 0;
#X obj 0 0 cnv 15 100 50 empty empty empty 20 12 0 14 #c4fcfc #404040
0;
#X obj 7 7 nbx 3 19 0 127 0 1 cc-09-s cc-09-r Filter\ Type 0 30 0 14
#f8fc00 #000000 #000000 0 256;
#X obj 161 381 s parm-09-r;
#X obj 218 223 r cc-09-s;
#X obj 232 280 s cc-nn-s;
#X connect 0 0 3 0;
#X connect 0 1 2 0;
#X connect 0 2 1 0;
#X connect 2 0 4 0;
#X connect 3 0 16 0;
#X connect 4 0 6 0;
#X connect 5 0 35 0;
#X connect 6 0 5 1;
#X connect 7 0 15 0;
#X connect 8 0 7 0;
#X connect 9 0 12 0;
#X connect 10 0 13 0;
#X connect 11 0 14 0;
#X connect 12 0 15 0;
#X connect 13 0 15 0;
#X connect 14 0 15 0;
#X connect 15 0 18 0;
#X connect 17 0 26 0;
#X connect 19 0 5 0;
#X connect 20 0 23 0;
#X connect 21 0 24 0;
#X connect 22 0 25 0;
#X connect 23 0 15 0;
#X connect 24 0 15 0;
#X connect 25 0 15 0;
#X connect 26 0 8 0;
#X connect 26 1 27 0;
#X connect 27 0 9 0;
#X connect 27 1 28 0;
#X connect 28 0 10 0;
#X connect 28 1 29 0;
#X connect 29 0 11 0;
#X connect 29 1 30 0;
#X connect 30 0 20 0;
#X connect 30 1 31 0;
#X connect 31 0 21 0;
#X connect 31 1 22 0;
#X connect 32 0 4 1;
#X connect 32 0 37 0;
#X connect 36 0 32 0;
#X coords 0 -1 1 1 100 50 2 0 0;
