#N canvas 499 56 365 397 12;
#X obj 162 30 ctlin;
#X floatatom 194 68 2 0 0 1 CHAN - - 0;
#X floatatom 178 95 4 0 0 1 CC - - 0;
#X floatatom 162 128 4 0 0 1 VALUE - - 0;
#X obj 201 240 ==;
#X obj 162 312 spigot;
#X obj 201 274 tgl 15 0 empty empty empty 17 7 0 10 #fcfcfc #000000
#000000 0 1;
#X floatatom 219 208 5 0 0 0 - - - 0;
#X obj 0 0 cnv 15 100 50 empty empty empty 20 12 0 14 #c4fcfc #404040
0;
#X obj 7 7 nbx 3 19 0 127 0 1 cc-07-s cc-07-r LFO\ Rate 0 30 0 14 #f8fc00
#000000 #000000 0 256;
#X obj 162 341 s parm-07-r;
#X obj 219 179 r cc-07-s;
#X obj 236 239 s cc-nn-s;
#X connect 0 0 3 0;
#X connect 0 1 2 0;
#X connect 0 2 1 0;
#X connect 2 0 4 0;
#X connect 3 0 5 0;
#X connect 4 0 6 0;
#X connect 5 0 10 0;
#X connect 6 0 5 1;
#X connect 7 0 4 1;
#X connect 7 0 12 0;
#X connect 11 0 7 0;
#X coords 0 -1 1 1 100 50 2 0 0;
