#N canvas 617 318 742 435 12;
#X obj 144 30 ctlin;
#X floatatom 176 68 2 0 0 1 CHAN - - 0;
#X floatatom 160 95 4 0 0 1 CC - - 0;
#X floatatom 144 128 4 0 0 1 VALUE - - 0;
#X obj 183 287 ==;
#X obj 144 352 spigot;
#X obj 183 314 tgl 15 0 empty empty empty 17 7 0 10 #fcfcfc #000000
#000000 0 1;
#X obj 309 124 int 0;
#X obj 309 104 bng 15 250 50 0 empty empty empty 17 7 0 10 #fcfcfc
#000000 #000000;
#X obj 362 128 bng 15 250 50 0 empty empty empty 17 7 0 10 #fcfcfc
#000000 #000000;
#X obj 415 151 bng 15 250 50 0 empty empty empty 17 7 0 10 #fcfcfc
#000000 #000000;
#X obj 468 177 bng 15 250 50 0 empty empty empty 17 7 0 10 #fcfcfc
#000000 #000000;
#X obj 362 148 int 1;
#X obj 415 171 int 2;
#X obj 468 197 int 3;
#X floatatom 309 348 5 0 0 0 - - - 0;
#X obj 144 165 s \$0-remap-in;
#X obj 309 41 r \$0-remap-in;
#X obj 309 380 s \$0-remap-out;
#X obj 144 190 r \$0-remap-out;
#X obj 521 204 bng 15 250 50 0 empty empty empty 17 7 0 10 #fcfcfc
#000000 #000000;
#X obj 581 204 bng 15 250 50 0 empty empty empty 17 7 0 10 #fcfcfc
#000000 #000000;
#X obj 521 224 int 4;
#X obj 581 224 int 5;
#X obj 309 72 moses 21;
#X obj 362 98 moses 42;
#X obj 415 124 moses 63;
#X obj 468 150 moses 84;
#X obj 521 177 moses 105;
#X obj 0 0 cnv 15 100 50 empty empty empty 20 12 0 14 #c4fcfc #404040
0;
#X obj 7 7 nbx 3 19 0 127 0 1 cc-14-s cc-14-r Delay\ Type 0 30 0 14
#f8fc00 #000000 #000000 0 256;
#X floatatom 201 252 5 0 0 0 - - - 0;
#X obj 145 381 s parm-14-r;
#X obj 201 223 r cc-14-s;
#X obj 221 287 s cc-nn-s;
#X connect 0 0 3 0;
#X connect 0 1 2 0;
#X connect 0 2 1 0;
#X connect 2 0 4 0;
#X connect 3 0 16 0;
#X connect 4 0 6 0;
#X connect 5 0 32 0;
#X connect 6 0 5 1;
#X connect 7 0 15 0;
#X connect 8 0 7 0;
#X connect 9 0 12 0;
#X connect 10 0 13 0;
#X connect 11 0 14 0;
#X connect 12 0 15 0;
#X connect 13 0 15 0;
#X connect 14 0 15 0;
#X connect 15 0 18 0;
#X connect 17 0 24 0;
#X connect 19 0 5 0;
#X connect 20 0 22 0;
#X connect 21 0 23 0;
#X connect 22 0 15 0;
#X connect 23 0 15 0;
#X connect 24 0 8 0;
#X connect 24 1 25 0;
#X connect 25 0 9 0;
#X connect 25 1 26 0;
#X connect 26 0 10 0;
#X connect 26 1 27 0;
#X connect 27 0 11 0;
#X connect 27 1 28 0;
#X connect 28 0 20 0;
#X connect 28 1 21 0;
#X connect 31 0 4 1;
#X connect 31 0 34 0;
#X connect 33 0 31 0;
#X coords 0 -1 1 1 100 50 2 0 0;
