#N canvas 554 67 865 474 12;
#X obj 135 17 ctlin;
#X floatatom 167 55 2 0 0 1 CHAN - - 0;
#X floatatom 151 82 4 0 0 1 CC - - 0;
#X floatatom 135 115 4 0 0 1 VALUE - - 0;
#X obj 174 281 ==;
#X obj 135 339 spigot;
#X obj 174 308 tgl 15 0 empty empty empty 17 7 0 10 #fcfcfc #000000
#000000 0 1;
#X obj 286 111 int 0;
#X obj 286 91 bng 15 250 50 0 empty empty empty 17 7 0 10 #fcfcfc #000000
#000000;
#X obj 339 115 bng 15 250 50 0 empty empty empty 17 7 0 10 #fcfcfc
#000000 #000000;
#X obj 392 138 bng 15 250 50 0 empty empty empty 17 7 0 10 #fcfcfc
#000000 #000000;
#X obj 445 164 bng 15 250 50 0 empty empty empty 17 7 0 10 #fcfcfc
#000000 #000000;
#X obj 778 297 bng 15 250 50 0 empty empty empty 17 7 0 10 #fcfcfc
#000000 #000000;
#X obj 339 135 int 1;
#X obj 392 158 int 2;
#X obj 445 184 int 3;
#X floatatom 286 389 5 0 0 0 - - - 0;
#X obj 135 152 s \$0-remap-in;
#X obj 286 28 r \$0-remap-in;
#X obj 286 421 s \$0-remap-out;
#X obj 135 177 r \$0-remap-out;
#X floatatom 192 245 5 0 0 0 - - - 0;
#X obj 0 0 cnv 15 100 50 empty empty empty 20 12 0 14 #c4fcfc #404040
0;
#X obj 7 7 nbx 3 19 0 127 0 1 cc-27-s cc-27-r Arp\ Pattern 0 30 0 14
#f8fc00 #000000 #000000 0 256;
#X obj 498 196 bng 15 250 50 0 empty empty empty 17 7 0 10 #fcfcfc
#000000 #000000;
#X obj 551 220 bng 15 250 50 0 empty empty empty 17 7 0 10 #fcfcfc
#000000 #000000;
#X obj 604 243 bng 15 250 50 0 empty empty empty 17 7 0 10 #fcfcfc
#000000 #000000;
#X obj 657 269 bng 15 250 50 0 empty empty empty 17 7 0 10 #fcfcfc
#000000 #000000;
#X obj 718 296 bng 15 250 50 0 empty empty empty 17 7 0 10 #fcfcfc
#000000 #000000;
#X obj 286 59 moses 13;
#X obj 339 85 moses 26;
#X obj 392 111 moses 39;
#X obj 445 137 moses 52;
#X obj 498 164 moses 65;
#X obj 551 190 moses 78;
#X obj 604 216 moses 91;
#X obj 657 242 moses 104;
#X obj 718 269 moses 117;
#X obj 498 216 int 4;
#X obj 551 240 int 5;
#X obj 604 263 int 6;
#X obj 657 289 int 7;
#X obj 718 316 int 8;
#X obj 778 327 int 9;
#X obj 135 368 s arp-01-r;
#X obj 191 216 r cc-27-s;
#X obj 206 279 s cc-nn-s;
#X connect 0 0 3 0;
#X connect 0 1 2 0;
#X connect 0 2 1 0;
#X connect 2 0 4 0;
#X connect 3 0 17 0;
#X connect 4 0 6 0;
#X connect 5 0 44 0;
#X connect 6 0 5 1;
#X connect 7 0 16 0;
#X connect 8 0 7 0;
#X connect 9 0 13 0;
#X connect 10 0 14 0;
#X connect 11 0 15 0;
#X connect 12 0 43 0;
#X connect 13 0 16 0;
#X connect 14 0 16 0;
#X connect 15 0 16 0;
#X connect 16 0 19 0;
#X connect 18 0 29 0;
#X connect 20 0 5 0;
#X connect 21 0 4 1;
#X connect 21 0 46 0;
#X connect 24 0 38 0;
#X connect 25 0 39 0;
#X connect 26 0 40 0;
#X connect 27 0 41 0;
#X connect 28 0 42 0;
#X connect 29 0 8 0;
#X connect 29 1 30 0;
#X connect 30 0 9 0;
#X connect 30 1 31 0;
#X connect 31 0 10 0;
#X connect 31 1 32 0;
#X connect 32 0 11 0;
#X connect 32 1 33 0;
#X connect 33 0 24 0;
#X connect 33 1 34 0;
#X connect 34 0 25 0;
#X connect 34 1 35 0;
#X connect 35 0 26 0;
#X connect 35 1 36 0;
#X connect 36 0 27 0;
#X connect 36 1 37 0;
#X connect 37 0 28 0;
#X connect 37 1 12 0;
#X connect 38 0 16 0;
#X connect 39 0 16 0;
#X connect 40 0 16 0;
#X connect 41 0 16 0;
#X connect 42 0 16 0;
#X connect 43 0 16 0;
#X connect 45 0 21 0;
#X coords 0 -1 1 1 100 50 2 0 0;
