#N canvas 857 266 356 421 12;
#X obj 94 92 until;
#X obj 94 158 + 1;
#X obj 94 50 bng 15 250 50 0 empty empty empty 17 7 0 10 #fcfcfc #000000
#000000;
#X obj 94 223 t s b;
#X obj 126 254 int 0;
#X obj 94 292 pack s f;
#X msg 94 336 \; \$1 \$2;
#X obj 94 20 r \$0-reset-config-s;
#X obj 94 186 makefilename cc-%02d-r;
#X obj 10 10 cnv 15 30 30 empty empty empty 20 12 0 14 #dcdcdc #404040
0;
#X obj 10 10 bng 30 250 50 0 \$0-reset-config-s \$0-reset-config-r
empty 17 7 0 10 #00fc04 #000000 #000000;
#X obj 188 94 symbol empty;
#X obj 188 123 s config-name;
#X obj 94 125 upto 29;
#X obj 250 20 loadbang;
#X connect 0 0 13 0;
#X connect 1 0 8 0;
#X connect 2 0 0 0;
#X connect 2 0 11 0;
#X connect 3 0 5 0;
#X connect 3 1 4 0;
#X connect 4 0 5 1;
#X connect 5 0 6 0;
#X connect 7 0 2 0;
#X connect 8 0 3 0;
#X connect 11 0 12 0;
#X connect 13 0 1 0;
#X connect 13 1 0 1;
#X connect 14 0 0 0;
#X coords 0 -1 1 1 30 30 2 10 10;
